{"title":"The Legend of Tarzan - 2016 - CAM - Hindi - x264 - AAC - Makinto","uid":15184307,"size":732267411,"categoryP":"video","categoryS":"movies","magnet":"?xt=urn:btih:bb5afe86d65a69ee969e674e2bb3ba7b7a75a6fb&amp;dn=The+Legend+of+Tarzan+-+2016+-+CAM+-+Hindi+-+x264+-+AAC+-+Makinto&amp;tr=udp%3A%2F%2Ftracker.leechers-paradise.org%3A6969&amp;tr=udp%3A%2F%2Fzer0day.ch%3A1337&amp;tr=udp%3A%2F%2Fopen.demonii.com%3A1337&amp;tr=udp%3A%2F%2Ftracker.coppersurfer.tk%3A6969&amp;tr=udp%3A%2F%2Fexodus.desync.com%3A6969","seeders":13,"leechers":2,"uploader":"makintos13","files":1,"time":1467481641,"description":"The Legend of Tarzan - 2016 - CAM - Hindi - x264 - AAC - Makintos13\r\n\r\n\r\nscreens:\r\n\r\n \nhttps://imgmak.com/TIX\r\n\r\n \nhttps://imgmak.com/TqC\r\n\r\n \nhttps://imgmak.com/TqK\r\n\r\n \nhttps://imgmak.com/TqT\r\n\r\n \nhttps://imgmak.com/Tqa\r\n\r\n \nhttps://imgmak.com/Tqp\r\n\r\n\r\n\r\nINFO:\r\n\r\nFormat : Matroska\r\nFormat version : Version 4 / Version 2\r\nFile size : 698 MiB\r\nDuration : 1h 40mn\r\nOverall bit rate : 967 Kbps\r\nMovie name : Makintos13\r\n\r\nVideo\r\nID : 2\r\nFormat : AVC\r\nFormat/Info : Advanced Video Codec\r\nFormat profile :   \r\nFormat settings, CABAC : Yes\r\nFormat settings, ReFrames : 4 frames\r\nCodec ID : V_MPEG4/ISO/AVC\r\nDuration : 1h 40mn\r\nBit rate : 901 Kbps\r\nWidth : 712 pixels\r\nHeight : 376 pixels\r\nDisplay aspect ratio : 1.894\r\nFrame rate mode : Constant\r\nFrame rate : 23.976 (24000/1001) fps\r\nColor space : YUV\r\nChroma subsampling : 4:2:0\r\nBit depth : 8 bits\r\nScan type : Progressive\r\nBits/(Pixel*Frame) : 0.140\r\nStream size : 650 MiB (93%)\r\nDefault : Yes\r\nForced : No\r\n\r\nAudio\r\nID : 1\r\nFormat : AAC\r\nFormat/Info : Advanced Audio Codec\r\nFormat profile : LC\r\nCodec ID : A_AAC\r\nDuration : 1h 40mn\r\nBit rate : 64.1 Kbps\r\nChannel(s) : 2 channels\r\nChannel positions : Front: L R\r\nSampling rate : 48.0 KHz\r\nFrame rate : 46.875 fps (1024 spf)\r\nCompression mode : Lossy\r\nDelay relative to video : 83ms\r\nStream size : 46.3 MiB (7%)\r\nTitle : Stereo\r\nDefault : Yes\r\nForced : No","torrent":{"xt":"urn:btih:bb5afe86d65a69ee969e674e2bb3ba7b7a75a6fb","amp;dn":"The+Legend+of+Tarzan+-+2016+-+CAM+-+Hindi+-+x264+-+AAC+-+Makinto","amp;tr":["udp%3A%2F%2Ftracker.leechers-paradise.org%3A6969","udp%3A%2F%2Fzer0day.ch%3A1337","udp%3A%2F%2Fopen.demonii.com%3A1337","udp%3A%2F%2Ftracker.coppersurfer.tk%3A6969","udp%3A%2F%2Fexodus.desync.com%3A6969"],"infoHash":"bb5afe86d65a69ee969e674e2bb3ba7b7a75a6fb","infoHashBuffer":{"type":"Buffer","data":[187,90,254,134,214,90,105,238,150,158,103,78,43,179,186,123,122,117,166,251]},"announce":[],"urlList":[]}}